<svg width="45" height="24" viewBox="0 0 45 24" fill="none" xmlns="http://www.w3.org/2000/svg">
<path d="M11.4863 12.7395L8.12011 13.2933C7.79369 13.3203 7.49134 13.4757 7.27956 13.7256C7.06779 13.9755 6.96395 14.2992 6.99088 14.6256C7.01781 14.952 7.17331 15.2544 7.42316 15.4662C7.67302 15.6779 7.99677 15.7818 8.32319 15.7549H8.52626L11.8863 15.201C12.2127 15.148 12.5047 14.9674 12.698 14.6991C12.8913 14.4308 12.9701 14.0967 12.917 13.7702C12.864 13.4438 12.6834 13.1518 12.4151 12.9585C12.1468 12.7652 11.8127 12.6864 11.4863 12.7395Z" fill="black"/>
<path d="M36.8339 13.2871L33.4677 12.7394C33.3081 12.7132 33.1449 12.7186 32.9874 12.7554C32.8299 12.7922 32.6812 12.8597 32.5498 12.954C32.4183 13.0483 32.3068 13.1675 32.2214 13.3049C32.1361 13.4423 32.0786 13.5952 32.0524 13.7548C32.0261 13.9144 32.0315 14.0776 32.0683 14.2351C32.1052 14.3927 32.1726 14.5414 32.2669 14.6728C32.3612 14.8042 32.4805 14.9158 32.6179 15.0011C32.7553 15.0865 32.9081 15.1439 33.0677 15.1702L36.4277 15.724H36.6308C36.9572 15.751 37.281 15.6471 37.5308 15.4354C37.7807 15.2236 37.9362 14.9212 37.9631 14.5948C37.9901 14.2684 37.8862 13.9446 37.6744 13.6948C37.4627 13.4449 37.1603 13.2894 36.8339 13.2625V13.2871Z" fill="black"/>
<path d="M40.6554 0.677772C39.6196 0.151383 38.4574 -0.0756531 37.2997 0.0221873C36.1419 0.120028 35.0343 0.538864 34.1015 1.23162L28.1262 5.64392C27.4929 5.06324 26.6653 4.74054 25.8062 4.73931H19.1477C18.2885 4.74054 17.4609 5.06324 16.8277 5.64392L10.8523 1.23162C9.91759 0.541211 8.80954 0.123844 7.6516 0.026002C6.49366 -0.0718401 5.33129 0.153684 4.29395 0.677455C3.25662 1.20123 2.38504 2.00268 1.77631 2.99255C1.16758 3.98243 0.845583 5.12185 0.846192 6.28392V16.7454C0.84786 17.9065 1.17151 19.0443 1.78115 20.0324C2.39079 21.0205 3.26253 21.8201 4.29944 22.3424C5.33636 22.8647 6.49781 23.0891 7.65467 22.9908C8.81152 22.8925 9.91844 22.4752 10.8523 21.7854L16.8277 17.3731C17.4609 17.9538 18.2885 18.2765 19.1477 18.2778H25.8062C26.6653 18.2765 27.4929 17.9538 28.1262 17.3731L34.1015 21.7854C35.0363 22.4758 36.1443 22.8932 37.3023 22.9911C38.4602 23.0889 39.6226 22.8634 40.6599 22.3396C41.6973 21.8158 42.5688 21.0144 43.1776 20.0245C43.7863 19.0346 44.1083 17.8952 44.1077 16.7331V6.27161C44.1084 5.11062 43.7857 3.97237 43.176 2.98439C42.5662 1.9964 41.6935 1.19771 40.6554 0.677772ZM15.7077 15.1393L9.39388 19.8039C8.8253 20.225 8.15084 20.4797 7.44584 20.5396C6.74085 20.5994 6.0331 20.462 5.40167 20.1428C4.77025 19.8236 4.24002 19.3351 3.87025 18.7319C3.50047 18.1287 3.30571 17.4345 3.30773 16.727V6.26546C3.30642 5.5632 3.50244 4.8747 3.87347 4.27845C4.24449 3.6822 4.77558 3.20219 5.40619 2.89315C6.03531 2.56841 6.74334 2.4279 7.4488 2.48777C8.15426 2.54765 8.82848 2.80549 9.39388 3.23161L15.7077 7.87776V9.7793L8.72926 7.35469C8.57333 7.27954 8.40331 7.23812 8.23028 7.23315C8.05726 7.22817 7.88514 7.25975 7.72515 7.32582C7.56516 7.39188 7.4209 7.49096 7.3018 7.61656C7.1827 7.74217 7.09144 7.89148 7.03397 8.05476C6.97649 8.21803 6.95411 8.39159 6.96827 8.5641C6.98243 8.73662 7.03282 8.9042 7.11615 9.05592C7.19948 9.20763 7.31387 9.34007 7.45186 9.44457C7.58985 9.54907 7.74833 9.62329 7.91695 9.66238L15.7077 12.3824V15.1393ZM25.8062 15.8162H19.1477C19.0192 15.8162 18.892 15.7909 18.7733 15.7417C18.6546 15.6926 18.5467 15.6205 18.4558 15.5296C18.365 15.4388 18.2929 15.3309 18.2437 15.2122C18.1946 15.0935 18.1693 14.9663 18.1693 14.8378V8.1793C18.1693 8.05081 18.1946 7.92357 18.2437 7.80486C18.2929 7.68615 18.365 7.57829 18.4558 7.48743C18.5467 7.39657 18.6546 7.3245 18.7733 7.27532C18.892 7.22615 19.0192 7.20084 19.1477 7.20084H25.8062C25.9347 7.20084 26.0619 7.22615 26.1806 7.27532C26.2993 7.3245 26.4072 7.39657 26.498 7.48743C26.5889 7.57829 26.661 7.68615 26.7101 7.80486C26.7593 7.92357 26.7846 8.05081 26.7846 8.1793V14.8378C26.7846 15.0973 26.6815 15.3461 26.498 15.5296C26.3145 15.7131 26.0657 15.8162 25.8062 15.8162ZM41.6462 16.7331C41.6482 17.4407 41.4534 18.1348 41.0836 18.738C40.7139 19.3412 40.1836 19.8298 39.5522 20.149C38.9208 20.4682 38.213 20.6056 37.508 20.5457C36.803 20.4859 36.1286 20.2312 35.56 19.8101L29.2462 15.1393V12.3824L37.0369 9.66238C37.1973 9.61557 37.3465 9.53659 37.4754 9.43024C37.6043 9.32389 37.7102 9.19241 37.7867 9.04381C37.8631 8.89521 37.9085 8.7326 37.92 8.56589C37.9315 8.39919 37.909 8.23188 37.8538 8.07416C37.7986 7.91644 37.7118 7.77162 37.5988 7.64853C37.4858 7.52543 37.3489 7.42664 37.1965 7.35817C37.044 7.2897 36.8792 7.25299 36.7122 7.25028C36.5451 7.24756 36.3792 7.2789 36.2246 7.34238L29.2462 9.7793V7.87776L35.56 3.21315C36.1286 2.79206 36.803 2.53735 37.508 2.4775C38.213 2.41765 38.9208 2.55501 39.5522 2.87423C40.1836 3.19346 40.7139 3.68197 41.0836 4.28518C41.4534 4.88839 41.6482 5.58255 41.6462 6.29007V16.7331Z" fill="black"/>
<path d="M5.99346 20.3001C4.87055 19.9244 4.07847 19.1693 3.57811 17.9974C3.38953 17.5557 3.37509 17.1767 3.3458 11.8998C3.32574 8.28564 3.35382 6.06087 3.42431 5.67955C3.66041 4.40236 4.39445 3.4654 5.60615 2.89452C6.21214 2.60902 6.42119 2.56433 7.14468 2.56564C7.8139 2.56687 8.09271 2.619 8.53381 2.82545C8.83734 2.96752 10.5655 4.16696 12.3742 5.49087L15.6628 7.89799L15.6685 8.81289L15.6742 9.72779L15.2818 9.57513C13.5875 8.9161 8.44466 7.21771 8.14335 7.21771C7.76997 7.21771 7.36332 7.42494 7.12592 7.7362C6.78932 8.17752 6.91021 9.0324 7.36569 9.43179C7.47437 9.52708 9.37647 10.2375 11.5926 11.0105L15.6219 12.416L15.645 13.7677L15.6682 15.1193L12.468 17.4741C10.7079 18.7692 8.98484 19.9651 8.63904 20.1315C7.80336 20.5338 6.86998 20.5933 5.99343 20.3001H5.99346ZM10.2615 15.5285C11.1951 15.3794 12.114 15.1846 12.3037 15.0957C13.211 14.6704 13.1623 13.2466 12.2252 12.8008C11.8698 12.6318 11.7796 12.6365 10.0751 12.9111C9.09654 13.0688 8.12274 13.2425 7.91109 13.2971C7.35346 13.441 6.9877 13.92 6.9877 14.5063C6.9877 15.0859 7.11411 15.3335 7.54383 15.5955C7.97637 15.8592 8.22989 15.853 10.2615 15.5285Z" fill="#7B61FF"/>
<path d="M18.8663 15.7026C18.7512 15.6544 18.5628 15.5102 18.4477 15.3823C18.2469 15.159 18.2384 15.0023 18.2384 11.5V7.85033L18.5286 7.56015L18.8188 7.26996H22.477H26.1353L26.4254 7.56015L26.7156 7.85033V11.5086V15.1668L26.4256 15.457L26.1355 15.7472L22.6056 15.7688C20.6641 15.7807 18.9815 15.7509 18.8663 15.7026V15.7026Z" fill="#7B61FF"/>
<path d="M36.8673 20.3693C36.1254 20.1224 35.7404 19.8679 32.4875 17.474L29.2877 15.1192L29.3098 13.7686L29.332 12.418L33.2566 11.0432C35.4152 10.2871 37.2868 9.61009 37.4157 9.53881C37.7159 9.37282 37.9662 8.8885 37.9662 8.47352C37.9662 7.77626 37.4139 7.21763 36.7246 7.21763C36.4847 7.21763 31.1362 9.0078 29.5675 9.61316L29.2797 9.72422L29.2863 8.81106L29.2929 7.8979L32.5722 5.49079C34.3758 4.16687 36.0955 2.9729 36.3938 2.83752C37.9108 2.14902 39.9364 2.71978 40.87 4.09882C41.604 5.18294 41.5736 4.89364 41.6081 11.1174C41.6271 14.5484 41.5987 16.964 41.5351 17.3078C41.3038 18.5591 40.4736 19.6552 39.3766 20.1574C38.6755 20.4784 37.4945 20.5781 36.8673 20.3693H36.8673ZM37.2824 15.6508C38.2564 15.2438 38.1691 13.5639 37.1601 13.2998C36.2969 13.0738 33.2403 12.6468 32.9471 12.7112C32.4829 12.8131 32.0004 13.4167 32.0023 13.8932C32.0032 14.107 32.062 14.3952 32.1331 14.5335C32.39 15.0333 32.7345 15.1699 34.5173 15.4789C36.5484 15.8309 36.8119 15.8473 37.2824 15.6508Z" fill="#7B61FF"/>
</svg>
