<svg width="56" height="56" viewBox="0 0 56 56" fill="none" xmlns="http://www.w3.org/2000/svg">
<path d="M46.4614 33.4616C46.4614 33.4616 41.1537 46.1539 27.9999 46.1539C14.8461 46.1539 9.53839 33.4616 9.53839 33.4616C9.53839 33.4616 18.9999 35.7693 27.7691 35.7693C36.5384 35.7693 46.4614 33.4616 46.4614 33.4616Z" fill="#374F6B"/>
<path d="M49.4615 19.6154C39.7692 16.6154 32.1538 9.23077 27.9999 9.23077C23.8461 9.23077 16.2307 16.6154 6.53842 19.6154C4.92303 20.0769 4.23073 21.9231 5.1538 23.3077C7.23072 26.0769 9.53841 26.3077 9.53841 29.5385C9.53841 29.5385 18.7692 31.8461 27.9999 31.8461C37.2307 31.8461 46.4615 29.5385 46.4615 29.5385C46.4615 26.3077 48.7691 26.0769 50.6153 23.0769C51.5384 21.9231 50.8461 20.0769 49.4615 19.6154ZM27.9999 27.6923C25.4615 27.6923 23.3846 23.3077 23.3846 20.7692C23.3846 20.7692 25.4615 18.4615 27.9999 18.4615C30.5384 18.4615 32.6153 20.7692 32.6153 20.7692C32.6153 23.3077 30.5384 27.6923 27.9999 27.6923Z" fill="#374F6B"/>
<path d="M27.3433 27.5499C25.7856 27.0407 24.2145 24.8053 23.6304 22.2669C23.5541 21.9353 23.47 21.4744 23.4436 21.2426L23.3955 20.8211L23.8704 20.3805C24.9154 19.4112 26.3426 18.6867 27.4731 18.5517C29.0087 18.3683 30.8056 19.0972 32.2416 20.4861L32.6025 20.8352L32.5554 21.2496C32.2667 23.789 30.6902 26.5723 29.0961 27.3571C28.5247 27.6384 27.8434 27.7133 27.3433 27.5499Z" fill="#E9E843"/>
</svg>
