<svg width="45" height="31" viewBox="0 0 45 31" fill="none" xmlns="http://www.w3.org/2000/svg">
<path d="M29.473 29.5934C24.7846 28.8857 20.0077 28.8857 15.3192 29.5934C14.1692 29.7703 13.1077 29.0626 12.9307 27.9126C12.7538 26.8511 13.55 25.7011 14.7 25.5242C19.7423 24.8165 24.9615 24.8165 30.0038 25.5242C31.2423 25.7011 32.0384 26.7626 31.773 27.9126C31.5961 29.0626 30.5346 29.7703 29.473 29.5934Z" stroke="black" stroke-width="1.76923" stroke-miterlimit="10"/>
<path d="M31.0654 26.0549C31.8615 24.3741 36.1077 16.5011 39.5577 24.1972" stroke="black" stroke-width="1.76923" stroke-miterlimit="10"/>
<path d="M42.1231 24.2857C42.1231 24.2857 43.8923 19.951 40.7961 16.4126C39.7346 15.1741 38.2307 14.378 36.6384 14.0241C34.0731 13.4049 29.7384 13.228 26.9077 17.5626C26.9077 17.5626 24.6077 21.1895 24.8731 25.0818" stroke="black" stroke-width="1.76923" stroke-miterlimit="10"/>
<path d="M40.7076 29.5049C42.271 29.5049 43.5384 28.2375 43.5384 26.6742C43.5384 25.1108 42.271 23.8434 40.7076 23.8434C39.1442 23.8434 37.8768 25.1108 37.8768 26.6742C37.8768 28.2375 39.1442 29.5049 40.7076 29.5049Z" stroke="black" stroke-width="1.76923" stroke-miterlimit="10"/>
<path d="M31.6846 11.0165C33.248 11.0165 34.5154 9.74914 34.5154 8.18575C34.5154 6.62236 33.248 5.35498 31.6846 5.35498C30.1212 5.35498 28.8538 6.62236 28.8538 8.18575C28.8538 9.74914 30.1212 11.0165 31.6846 11.0165Z" stroke="black" stroke-width="1.76923" stroke-miterlimit="10"/>
<path d="M13.6384 26.1434C12.9307 24.728 8.59614 16.2357 5.05768 24.1087" stroke="black" stroke-width="1.76923" stroke-miterlimit="10"/>
<path d="M2.49232 24.2857C2.49232 24.2857 0.723093 19.951 3.81924 16.4126C4.88078 15.1741 6.38463 14.378 7.97693 14.0241C10.5423 13.4049 14.8769 13.228 17.7077 17.5626C17.7077 17.5626 20.0077 21.1895 19.7423 25.0818" stroke="black" stroke-width="1.76923" stroke-miterlimit="10"/>
<path d="M3.90767 29.505C5.47106 29.505 6.73844 28.2377 6.73844 26.6743C6.73844 25.1109 5.47106 23.8435 3.90767 23.8435C2.34428 23.8435 1.0769 25.1109 1.0769 26.6743C1.0769 28.2377 2.34428 29.505 3.90767 29.505Z" stroke="black" stroke-width="1.76923" stroke-miterlimit="10"/>
<path d="M29.5615 6.32807C29.5615 6.32807 27.6153 3.93961 25.5807 5.62038C24.6961 6.32807 24.1653 7.38961 24.1653 8.53961C24.1653 9.60114 24.4307 10.9281 25.8461 12.3434C27.7038 14.2896 26.9076 17.4742 26.9076 17.4742" stroke="black" stroke-width="1.76923" stroke-miterlimit="10"/>
<path d="M17.0884 16.5896C17.1769 15.7934 14.9653 5.62038 22.6615 1.63961C22.6615 1.63961 29.5615 -1.27961 32.1269 5.35499" stroke="black" stroke-width="1.76923" stroke-miterlimit="10"/>
<path d="M20.6958 24.0405C20.6931 23.7863 20.5177 22.484 20.4195 21.988C20.0901 20.3241 19.1963 18.1277 18.3092 16.8023C18.0568 16.4251 18.0123 16.2869 17.9392 15.6514C17.7943 14.3926 17.7531 12.3152 17.8525 11.2847C18.1509 8.19353 19.0231 6.01957 20.6443 4.32622C22.0487 2.85932 23.2044 2.2492 25.054 1.99809C26.4553 1.80786 27.8568 2.04911 28.8679 2.6546C29.3979 2.97201 30.117 3.6507 30.445 4.14304C30.6966 4.52084 30.7197 4.60943 30.5667 4.60943C30.5093 4.60943 30.262 4.71049 30.0171 4.83402L29.5719 5.05861L29.333 4.87641C29.2016 4.7762 28.865 4.58701 28.585 4.45599C27.1599 3.78906 25.805 4.07127 24.6135 5.28323C23.5468 6.36826 23.1155 7.63678 23.2882 9.18174C23.4404 10.5439 23.9486 11.6216 24.9854 12.7808C25.8731 13.7733 26.1061 14.4444 26.1047 16.0034L26.1037 17.0775L25.8205 17.5917C25.1602 18.7904 24.4442 20.729 24.1968 21.988C24.0867 22.5486 23.919 23.7628 23.919 24.0001C23.919 24.0764 23.5633 24.098 22.3077 24.098C21.4215 24.098 20.6962 24.0721 20.6959 24.0405H20.6958Z" fill="#F76C6C"/>
<path d="M30.9394 9.9135C30.2006 9.57669 29.8042 8.9719 29.8004 8.17542C29.7953 7.12956 30.634 6.29448 31.6851 6.29885C33.0236 6.30442 33.9527 7.68101 33.4331 8.88887C33.2462 9.3233 32.7984 9.77903 32.3912 9.94914C32.0297 10.1002 31.3103 10.0825 30.9394 9.9135Z" fill="#E9E843"/>
<path d="M30.4301 24.6755C30.3808 24.6262 28.1048 24.3554 26.8346 24.2478C26.2649 24.1995 25.7886 24.1503 25.7762 24.1384C25.7223 24.0865 25.9354 22.6877 26.1065 21.9704C26.4315 20.6078 27.1417 18.916 27.8223 17.883C28.2009 17.3082 29.1524 16.3226 29.7118 15.9258C31.5697 14.6079 33.9814 14.2945 36.7531 15.0108C39.1036 15.6182 40.8867 17.3767 41.4938 19.686C41.6708 20.3594 41.7272 21.6146 41.6197 22.4866L41.5582 22.9853L40.7757 22.9614C40.1664 22.9427 39.9762 22.9107 39.9165 22.8168C38.918 21.2467 38.4363 20.7364 37.53 20.2885C36.9538 20.0037 36.904 19.9931 36.1608 19.9962C35.508 19.9989 35.3174 20.03 34.9193 20.1981C33.5989 20.7557 32.2496 22.1214 31.0855 24.0782C30.7526 24.6379 30.5642 24.8096 30.4301 24.6755Z" fill="#E9E843"/>
<path d="M39.9821 28.4372C39.5854 28.2647 39.1403 27.8055 38.9574 27.3803C38.4377 26.1725 39.3668 24.7959 40.7053 24.7903C41.4323 24.7873 42.0107 25.1364 42.3689 25.7945C42.9086 26.7861 42.4653 27.9822 41.3918 28.4308C41.0461 28.5752 40.3069 28.5786 39.9821 28.4372Z" fill="#9EFF8E"/>
<path d="M14.516 28.5987C14.3873 28.54 14.1888 28.3811 14.0749 28.2457C13.6879 27.7859 13.8405 27.0333 14.4048 26.6183C15.0321 26.1568 21.9228 25.78 25.5348 26.0096C27.1412 26.1117 29.5551 26.3684 30.0296 26.4877C30.2192 26.5353 30.4514 26.6748 30.6051 26.8334C30.8326 27.0683 30.8622 27.1465 30.8589 27.5027C30.8541 28.0084 30.6543 28.3671 30.265 28.5692C29.9753 28.7194 29.9694 28.7194 28.7304 28.56C26.2774 28.2444 25.5539 28.2038 22.3843 28.2038C19.3233 28.2038 18.4327 28.2504 16.438 28.515C15.0207 28.7031 14.769 28.714 14.516 28.5987V28.5987Z" fill="#7B61FF"/>
<path d="M13.6083 24.1583C12.5624 22.4102 11.2156 20.9164 10.2161 20.3958C8.97266 19.7482 7.96211 19.7214 6.8853 20.3074C6.14158 20.7122 5.46131 21.4371 4.85597 22.47L4.5826 22.9364L3.83512 22.9609C3.424 22.9743 3.08219 22.9853 3.07554 22.9853C3.06888 22.9853 3.0222 22.64 2.97179 22.218C2.56819 18.8394 4.5928 15.8557 7.86222 15.0108C10.634 14.2945 13.0457 14.6079 14.9036 15.9258C15.4629 16.3226 16.4144 17.3082 16.7931 17.883C17.4736 18.916 18.1838 20.6078 18.5089 21.9704C18.6801 22.6882 18.893 24.0859 18.8391 24.1389C18.8267 24.1511 18.2124 24.2167 17.4739 24.2847C15.9123 24.4285 14.3577 24.6279 14.1328 24.7131C13.9968 24.7647 13.9268 24.6906 13.6083 24.1583Z" fill="#9EFF8E"/>
<path d="M3.04027 28.334C2.53312 28.069 2.17016 27.6087 2.05874 27.0892C1.94806 26.5731 2.01932 26.1787 2.31115 25.6921C3.25208 24.1232 5.62372 24.7083 5.79078 26.5506C5.85958 27.3094 5.34611 28.1356 4.61618 28.4406C4.17618 28.6245 3.51004 28.5794 3.04027 28.334Z" fill="#F76C6C"/>
</svg>
