<svg width="62" height="36" viewBox="0 0 62 36" fill="none" xmlns="http://www.w3.org/2000/svg">
<path d="M26.0409 5.17341C25.7727 5.12834 25.4977 5.19225 25.2763 5.35107C25.0549 5.5099 24.9053 5.75064 24.8603 6.02039C24.8245 6.23806 23.9055 11.3488 17.6665 11.3488C17.3945 11.3488 17.1336 11.4575 16.9413 11.651C16.7489 11.8445 16.6409 12.1069 16.6409 12.3805C16.6409 12.6541 16.7489 12.9165 16.9413 13.11C17.1336 13.3034 17.3945 13.4121 17.6665 13.4121C19.7866 13.5368 21.8811 12.8944 23.5714 11.6012C25.2617 10.308 26.4363 8.4492 26.8829 6.36083C26.9277 6.09106 26.8642 5.81444 26.7063 5.59177C26.5484 5.36911 26.309 5.21862 26.0409 5.17341Z" fill="black"/>
<path d="M26.0409 5.17341C25.7727 5.12834 25.4977 5.19225 25.2763 5.35107C25.0549 5.5099 24.9053 5.75064 24.8603 6.02039C24.8245 6.23806 23.9055 11.3488 17.6665 11.3488C17.3945 11.3488 17.1336 11.4575 16.9413 11.651C16.7489 11.8445 16.6409 12.1069 16.6409 12.3805C16.6409 12.6541 16.7489 12.9165 16.9413 13.11C17.1336 13.3034 17.3945 13.4121 17.6665 13.4121C19.7866 13.5368 21.8811 12.8944 23.5714 11.6012C25.2617 10.308 26.4363 8.4492 26.8829 6.36083C26.9277 6.09106 26.8642 5.81444 26.7063 5.59177C26.5484 5.36911 26.309 5.21862 26.0409 5.17341Z" fill="black"/>
<path d="M44.3332 11.3492C38.1445 11.3492 37.1773 6.23431 37.1394 6.01664C37.094 5.74686 36.9438 5.50628 36.7221 5.34783C36.5003 5.18937 36.225 5.12602 35.9568 5.17172C35.6886 5.21741 35.4494 5.3684 35.2919 5.59148C35.1344 5.81455 35.0714 6.09143 35.1168 6.36121C35.5635 8.44957 36.7381 10.3083 38.4284 11.6016C40.1187 12.8948 42.2131 13.5371 44.3332 13.4125C44.6052 13.4125 44.8661 13.3038 45.0585 13.1104C45.2508 12.9169 45.3589 12.6545 45.3589 12.3809C45.3589 12.1073 45.2508 11.8449 45.0585 11.6514C44.8661 11.4579 44.6052 11.3492 44.3332 11.3492Z" fill="black"/>
<path d="M44.3332 11.3492C38.1445 11.3492 37.1773 6.23431 37.1394 6.01664C37.094 5.74686 36.9438 5.50628 36.7221 5.34783C36.5003 5.18937 36.225 5.12602 35.9568 5.17172C35.6886 5.21741 35.4494 5.3684 35.2919 5.59148C35.1344 5.81455 35.0714 6.09143 35.1168 6.36121C35.5635 8.44957 36.7381 10.3083 38.4284 11.6016C40.1187 12.8948 42.2131 13.5371 44.3332 13.4125C44.6052 13.4125 44.8661 13.3038 45.0585 13.1104C45.2508 12.9169 45.3589 12.6545 45.3589 12.3809C45.3589 12.1073 45.2508 11.8449 45.0585 11.6514C44.8661 11.4579 44.6052 11.3492 44.3332 11.3492Z" fill="black"/>
<path d="M50.6543 22.1638L50.5517 21.5087L47.7999 3.50023C47.6551 2.52397 47.1655 1.63287 46.4207 0.990187C45.6759 0.347506 44.7258 -0.00371071 43.7445 0.000886018H43.6153C43.3453 0.000878529 43.0759 0.0278336 42.8112 0.0813546L34.642 1.72374C33.5164 1.94987 32.3713 2.0639 31.2235 2.06418H30.7763C29.6285 2.0639 28.4835 1.94987 27.3579 1.72374L19.2051 0.0844498C18.6436 -0.029702 18.0649 -0.0281129 17.504 0.0891221C16.9432 0.206357 16.4118 0.436802 15.942 0.766518C15.4722 1.09623 15.0738 1.51837 14.7708 2.0074C14.4679 2.49642 14.2667 3.04218 14.1794 3.61165L11.4461 21.5087L11.3435 22.1638C3.97635 23.4905 0.230713 25.4031 0.230713 27.8554C0.230713 33.5676 20.3579 35.0769 30.9999 35.0769C41.642 35.0769 61.7691 33.5676 61.7691 27.8554C61.7691 25.4031 58.0235 23.4905 50.6543 22.1638ZM49.2912 26.8237H12.7087L13.3394 22.6971H48.6604L49.2912 26.8237ZM16.2102 3.92734C16.2581 3.63498 16.3636 3.35523 16.5207 3.10456C16.6777 2.85389 16.8831 2.63737 17.1246 2.46778C17.3662 2.29818 17.639 2.17893 17.9271 2.11706C18.2152 2.05519 18.5126 2.05194 18.802 2.10751L26.9548 3.7468C28.2131 3.99969 29.4931 4.1272 30.7763 4.12748H31.2235C32.5067 4.1272 33.7867 3.99969 35.045 3.7468L43.2102 2.10441C43.3435 2.0774 43.4792 2.06392 43.6153 2.06418H43.7476C44.2378 2.06362 44.7118 2.24053 45.083 2.56255C45.4541 2.88457 45.6977 3.3302 45.7691 3.81798L48.3455 20.6338H13.6543L16.2102 3.92734ZM30.9999 33.0136C12.4184 33.0136 2.28199 29.6092 2.28199 27.8554C2.28199 27.3499 3.93327 25.6827 11.0153 24.322L10.5025 27.6986C10.4801 27.8453 10.4894 27.9951 10.5298 28.1379C10.5702 28.2807 10.6408 28.413 10.7367 28.5258C10.8326 28.6386 10.9516 28.7293 11.0855 28.7916C11.2194 28.854 11.3652 28.8865 11.5128 28.887H50.4871C50.6349 28.887 50.781 28.8548 50.9153 28.7926C51.0496 28.7305 51.169 28.6399 51.2652 28.527C51.3615 28.4141 51.4323 28.2816 51.4729 28.1386C51.5135 27.9957 51.5229 27.8455 51.5004 27.6986L50.9876 24.322C58.0666 25.6827 59.7178 27.3499 59.7178 27.8554C59.7178 29.6092 49.5814 33.0136 30.9999 33.0136Z" fill="black"/>
<path d="M50.6543 22.1638L50.5517 21.5087L47.7999 3.50023C47.6551 2.52397 47.1655 1.63287 46.4207 0.990187C45.6759 0.347506 44.7258 -0.00371071 43.7445 0.000886018H43.6153C43.3453 0.000878529 43.0759 0.0278336 42.8112 0.0813546L34.642 1.72374C33.5164 1.94987 32.3713 2.0639 31.2235 2.06418H30.7763C29.6285 2.0639 28.4835 1.94987 27.3579 1.72374L19.2051 0.0844498C18.6436 -0.029702 18.0649 -0.0281129 17.504 0.0891221C16.9432 0.206357 16.4118 0.436802 15.942 0.766518C15.4722 1.09623 15.0738 1.51837 14.7708 2.0074C14.4679 2.49642 14.2667 3.04218 14.1794 3.61165L11.4461 21.5087L11.3435 22.1638C3.97635 23.4905 0.230713 25.4031 0.230713 27.8554C0.230713 33.5676 20.3579 35.0769 30.9999 35.0769C41.642 35.0769 61.7691 33.5676 61.7691 27.8554C61.7691 25.4031 58.0235 23.4905 50.6543 22.1638ZM49.2912 26.8237H12.7087L13.3394 22.6971H48.6604L49.2912 26.8237ZM16.2102 3.92734C16.2581 3.63498 16.3636 3.35523 16.5207 3.10456C16.6777 2.85389 16.8831 2.63737 17.1246 2.46778C17.3662 2.29818 17.639 2.17893 17.9271 2.11706C18.2152 2.05519 18.5126 2.05194 18.802 2.10751L26.9548 3.7468C28.2131 3.99969 29.4931 4.1272 30.7763 4.12748H31.2235C32.5067 4.1272 33.7867 3.99969 35.045 3.7468L43.2102 2.10441C43.3435 2.0774 43.4792 2.06392 43.6153 2.06418H43.7476C44.2378 2.06362 44.7118 2.24053 45.083 2.56255C45.4541 2.88457 45.6977 3.3302 45.7691 3.81798L48.3455 20.6338H13.6543L16.2102 3.92734ZM30.9999 33.0136C12.4184 33.0136 2.28199 29.6092 2.28199 27.8554C2.28199 27.3499 3.93327 25.6827 11.0153 24.322L10.5025 27.6986C10.4801 27.8453 10.4894 27.9951 10.5298 28.1379C10.5702 28.2807 10.6408 28.413 10.7367 28.5258C10.8326 28.6386 10.9516 28.7293 11.0855 28.7916C11.2194 28.854 11.3652 28.8865 11.5128 28.887H50.4871C50.6349 28.887 50.781 28.8548 50.9153 28.7926C51.0496 28.7305 51.169 28.6399 51.2652 28.527C51.3615 28.4141 51.4323 28.2816 51.4729 28.1386C51.5135 27.9957 51.5229 27.8455 51.5004 27.6986L50.9876 24.322C58.0666 25.6827 59.7178 27.3499 59.7178 27.8554C59.7178 29.6092 49.5814 33.0136 30.9999 33.0136Z" fill="black"/>
<path d="M13.7504 20.3182C13.7824 20.1792 14.3622 16.4274 15.0389 11.9808C15.7157 7.53416 16.3192 3.74129 16.3801 3.55216C16.513 3.13951 17.2025 2.43976 17.6389 2.27453C18.1875 2.06684 18.688 2.13625 23.2023 3.04601C28.0275 4.01843 29.1267 4.17721 31.0233 4.17582C32.9112 4.17448 33.8741 4.03434 38.8142 3.04225C43.8455 2.03187 44.1973 2.00314 44.9035 2.54495C45.1301 2.71882 45.404 3.06867 45.5122 3.3224C45.6315 3.60233 46.1997 7.00691 46.9573 11.9808C47.644 16.4891 48.2311 20.2662 48.262 20.3743C48.3154 20.5609 47.4407 20.5708 31.0052 20.5708H13.6923L13.7504 20.3182ZM19.7817 13.3249C22.8987 12.7781 25.576 10.5053 26.6151 7.52359C27.0105 6.38912 27.0113 5.84064 26.6182 5.44514C26.3871 5.21262 26.2024 5.1363 25.871 5.1363C25.2681 5.1363 24.942 5.47212 24.7021 6.33995C23.9055 9.22205 21.2501 11.2399 18.2421 11.2489C17.1216 11.2523 16.599 11.6101 16.599 12.3738C16.599 13.4329 17.5485 13.7166 19.7817 13.3249ZM44.8447 13.3271C45.2381 13.1225 45.4007 12.8436 45.4007 12.3738C45.4007 11.6144 44.8759 11.2509 43.7797 11.2509C40.8804 11.2509 38.1549 9.2284 37.3486 6.47865C37.1076 5.65673 36.6571 5.07505 36.2615 5.07505C35.8184 5.07505 35.3758 5.32385 35.185 5.68015C35.0101 6.00682 35.0037 6.11806 35.1286 6.65674C35.7546 9.35689 37.7652 11.6986 40.4074 12.805C41.8764 13.4202 44.1512 13.6878 44.8447 13.3271Z" fill="#724400"/>
<path d="M12.8035 26.6435C12.8035 26.5869 12.9285 25.7405 13.0814 24.7627C13.2343 23.7849 13.3599 22.9217 13.3605 22.8445C13.3614 22.7328 16.9643 22.7041 30.9999 22.7041C45.0354 22.7041 48.6383 22.7328 48.6392 22.8445C48.6399 22.9217 48.7654 23.7849 48.9183 24.7627C49.0712 25.7405 49.1963 26.5869 49.1963 26.6435C49.1963 26.7055 41.9587 26.7465 30.9999 26.7465C20.0411 26.7465 12.8035 26.7055 12.8035 26.6435Z" fill="black"/>
<path d="M24.1344 32.7979C15.0923 32.3367 7.22442 30.9035 3.73231 29.0813C2.92737 28.6613 2.30994 28.1251 2.30994 27.846C2.30994 27.6035 3.14792 26.945 4.01402 26.507C4.50586 26.2583 5.50567 25.8539 6.23582 25.6083C7.57836 25.1568 10.7944 24.3513 10.8861 24.4435C10.9134 24.4711 10.8281 25.19 10.6964 26.0412C10.5647 26.8923 10.4575 27.7552 10.4581 27.9587C10.4597 28.464 10.8568 28.843 11.4778 28.932C11.7465 28.9705 20.7095 28.9872 31.3956 28.9691C49.733 28.938 50.8418 28.925 51.1252 28.7382C51.2904 28.6294 51.4606 28.402 51.5035 28.2329C51.5469 28.0618 51.4707 27.1609 51.3316 26.2007C51.1942 25.252 51.1002 24.4573 51.1227 24.4347C51.2025 24.3543 54.5175 25.1817 55.727 25.5839C56.4023 25.8084 57.3728 26.1981 57.8836 26.4499C58.7799 26.8916 59.69 27.5938 59.69 27.8436C59.69 28.125 59.0752 28.6599 58.2676 29.0813C54.7132 30.936 46.9025 32.3368 37.4863 32.8084C34.8744 32.9392 26.7797 32.9328 24.1344 32.7979Z" fill="#724400"/>
</svg>
