<svg width="52" height="36" viewBox="0 0 52 36" fill="none" xmlns="http://www.w3.org/2000/svg">
<path d="M50.738 16.2527C48.3419 14.8756 45.847 13.6847 43.2747 12.69V5.8466C43.2729 4.29656 42.6672 2.81053 41.5904 1.71449C40.5136 0.618446 39.0536 0.00188685 37.5308 6.10352e-05H14.5549C13.032 0.00188685 11.5721 0.618446 10.4953 1.71449C9.41845 2.81053 8.81271 4.29656 8.81092 5.8466V12.6913C6.23997 13.6857 3.74644 14.8762 1.35157 16.2527C1.11578 16.3888 0.934834 16.6053 0.840717 16.864C0.7466 17.1227 0.745375 17.4069 0.837257 17.6664L6.72195 34.3039C6.81998 34.5776 7.01446 34.8044 7.26761 34.9403C7.52076 35.0763 7.81451 35.1115 8.09177 35.0393C19.8719 31.9813 32.2176 31.9813 43.9978 35.0393C44.0923 35.0641 44.1895 35.0768 44.2872 35.077C44.5235 35.0769 44.7541 35.0026 44.9474 34.8643C45.1408 34.7259 45.2875 34.5303 45.3676 34.3039L51.2523 17.6664C51.3442 17.4069 51.3429 17.1227 51.2488 16.864C51.1547 16.6053 50.9738 16.3888 50.738 16.2527ZM11.1085 5.8466C11.1095 4.91655 11.4729 4.02489 12.119 3.36725C12.7651 2.70961 13.6412 2.3397 14.5549 2.33868H37.5308C38.4445 2.3397 39.3205 2.70961 39.9666 3.36725C40.6127 4.02489 40.9761 4.91655 40.9771 5.8466V11.8501C31.2833 8.5595 20.8021 8.55987 11.1085 11.8511V5.8466ZM43.558 32.5157C32.0457 29.7051 20.0436 29.7051 8.5313 32.5157L3.33002 17.8098C10.257 13.8146 18.083 11.7146 26.0448 11.7146C34.0066 11.7146 41.8325 13.8146 48.7595 17.8098L43.558 32.5157ZM26.0428 16.3704C26.3475 16.3704 26.6397 16.4936 26.8551 16.7129C27.0706 16.9321 27.1916 17.2296 27.1916 17.5397V19.8783H29.4892C29.7939 19.8783 30.0861 20.0015 30.3015 20.2208C30.517 20.4401 30.638 20.7375 30.638 21.0476C30.638 21.3577 30.517 21.6551 30.3015 21.8744C30.0861 22.0937 29.7939 22.2169 29.4892 22.2169H27.1916V24.5555C27.1916 24.8656 27.0706 25.1631 26.8551 25.3823C26.6397 25.6016 26.3475 25.7248 26.0428 25.7248C25.7381 25.7248 25.4459 25.6016 25.2305 25.3823C25.0151 25.1631 24.894 24.8656 24.894 24.5555V22.2169H22.5964C22.2918 22.2169 21.9996 22.0937 21.7841 21.8744C21.5687 21.6551 21.4476 21.3577 21.4476 21.0476C21.4476 20.7375 21.5687 20.4401 21.7841 20.2208C21.9996 20.0015 22.2918 19.8783 22.5964 19.8783H24.894V17.5397C24.894 17.2296 25.0151 16.9321 25.2305 16.7129C25.4459 16.4936 25.7381 16.3704 26.0428 16.3704ZM36.631 5.81865C33.1551 6.60883 29.6044 7.00859 26.0428 7.01076C22.4812 7.00839 18.9306 6.60844 15.4546 5.81807C15.3054 5.78673 15.1639 5.72552 15.0382 5.63798C14.9125 5.55045 14.8051 5.43834 14.7223 5.30818C14.6396 5.17802 14.5831 5.03241 14.5561 4.87982C14.5292 4.72723 14.5323 4.5707 14.5653 4.41936C14.5984 4.26801 14.6606 4.12486 14.7485 3.99823C14.8364 3.8716 14.9481 3.76403 15.0772 3.68176C15.2064 3.5995 15.3502 3.54419 15.5005 3.51906C15.6508 3.49392 15.8046 3.49946 15.9527 3.53535C22.5972 5.04948 29.4884 5.04948 36.1329 3.53535C36.2811 3.49946 36.4348 3.49392 36.5851 3.51906C36.7354 3.54419 36.8793 3.5995 37.0084 3.68176C37.1375 3.76403 37.2492 3.8716 37.3371 3.99823C37.425 4.12486 37.4873 4.26801 37.5203 4.41936C37.5533 4.5707 37.5565 4.72723 37.5295 4.87982C37.5025 5.03241 37.4461 5.17802 37.3633 5.30818C37.2805 5.43834 37.1732 5.55045 37.0475 5.63798C36.9218 5.72552 36.7802 5.78673 36.631 5.81807V5.81865Z" fill="black"/>
<path d="M6.02798 25.2306C4.62292 21.261 3.45753 17.9729 3.43823 17.9238C3.39524 17.8142 5.91648 16.4808 7.53707 15.7559C11.5426 13.9643 15.9233 12.7347 20.5411 12.1059C22.9527 11.7775 29.1461 11.7785 31.5445 12.1077C37.2773 12.8946 42.2315 14.4526 47.0836 16.9945C48.3323 17.6487 48.6693 17.879 48.6087 18.0369C48.5659 18.1484 47.4001 21.4366 46.0181 25.3441C43.6821 31.9487 43.487 32.4434 43.2454 32.3738C42.498 32.1585 38.5085 31.3891 36.9837 31.1661C32.7715 30.5502 31.4591 30.4663 26.0428 30.4663C20.628 30.4663 19.3227 30.5497 15.1019 31.1656C13.6095 31.3833 9.66589 32.1457 8.84135 32.3758C8.60162 32.4427 8.39531 31.9187 6.02798 25.2306ZM26.8223 25.4411L27.2307 25.07L27.273 23.6593L27.3153 22.2486H28.6416C29.9105 22.2486 29.983 22.2338 30.3185 21.9066C30.8139 21.4236 30.8077 20.7155 30.3037 20.2025C29.9462 19.8386 29.9096 19.8305 28.6268 19.8305H27.3153L27.273 18.433C27.2328 17.1051 27.2136 17.0182 26.8868 16.686C26.407 16.198 25.6786 16.198 25.1988 16.686C24.872 17.0182 24.8528 17.1051 24.8126 18.433L24.7703 19.8305H23.4588C22.176 19.8305 22.1394 19.8386 21.7819 20.2025C21.2875 20.7057 21.2723 21.4309 21.746 21.9131C22.0614 22.2341 22.134 22.2486 23.423 22.2486H24.7703L24.8126 23.6593L24.8549 25.07L25.2633 25.4411C25.52 25.6744 25.8095 25.8122 26.0428 25.8122C26.2761 25.8122 26.5657 25.6744 26.8223 25.4411Z" fill="white"/>
<path d="M11.1632 8.59034C11.1632 4.81929 11.2355 4.46795 12.2179 3.46808C13.3373 2.32866 12.4886 2.39457 26.0428 2.39457C39.5971 2.39457 38.7483 2.32867 39.8678 3.46808C40.8501 4.46795 40.9224 4.81929 40.9224 8.59034C40.9224 10.2926 40.8952 11.6854 40.8618 11.6854C40.8285 11.6854 39.9986 11.4539 39.0175 11.1709C30.546 8.72718 21.5396 8.72718 13.0681 11.1709C12.0871 11.4539 11.2571 11.6854 11.2238 11.6854C11.1905 11.6854 11.1632 10.2926 11.1632 8.59034H11.1632ZM28.8562 6.97568C31.0662 6.83535 33.0215 6.59183 35.1049 6.19748C37.2496 5.79151 37.5464 5.59596 37.5464 4.58874C37.5464 4.05928 37.2327 3.64604 36.7078 3.48418C36.5561 3.43739 35.7402 3.54092 34.8947 3.71425C31.7072 4.36778 30.2691 4.49455 26.0428 4.49455C21.8165 4.49455 20.3785 4.36778 17.1909 3.71425C16.3455 3.54092 15.5296 3.43739 15.3778 3.48418C14.853 3.64604 14.5393 4.05928 14.5393 4.58874C14.5393 5.59596 14.836 5.79151 16.9807 6.19748C21.127 6.98232 24.8793 7.22821 28.8562 6.97568Z" fill="white"/>
<path d="M25.5489 25.5229C25.0289 25.2585 24.9303 24.9287 24.9302 23.4531L24.93 22.1707H23.6169C22.3962 22.1707 22.2826 22.1563 22.0033 21.9653C21.58 21.6759 21.4036 21.1458 21.5765 20.6833C21.8147 20.0463 22.0189 19.9697 23.5657 19.937L24.93 19.9082V18.6517C24.93 17.2771 25.0198 16.8922 25.3996 16.6389C25.9517 16.2707 26.6316 16.4177 26.9672 16.9779C27.1177 17.2292 27.1398 17.4356 27.1401 18.5934L27.1404 19.9209L28.4446 19.9212C29.582 19.9215 29.7849 19.944 30.0318 20.0972C30.5684 20.4303 30.7325 21.0746 30.4154 21.6039C30.119 22.0987 29.8663 22.1707 28.4268 22.1707H27.1404L27.1401 23.4981C27.1397 24.977 27.0536 25.2655 26.5298 25.5411C26.1867 25.7218 25.9307 25.717 25.5489 25.5229H25.5489Z" fill="#F76C6C"/>
</svg>
