<svg width="85" height="85" viewBox="0 0 85 85" fill="none" xmlns="http://www.w3.org/2000/svg">
<path d="M25.3997 84.867C24.9522 84.6995 24.4332 84.3105 24.181 83.9536C23.7009 83.2741 23.3941 81.6684 23.5564 80.6851C23.6858 79.9018 27.7159 69.7007 28.1409 69.0809C28.5167 68.5327 29.2095 67.9432 29.9335 67.5553C30.3976 67.3068 30.6593 67.2363 31.245 67.2023C32.1363 67.1505 32.7168 67.38 33.2369 67.9897C33.8874 68.7523 34.2708 70.3507 34.0732 71.4764C33.9785 72.0156 30.2697 81.5997 29.7646 82.6102C29.4743 83.1911 28.5616 84.0956 27.819 84.5383C27.2419 84.8824 27.0684 84.9373 26.4606 84.968C26.0188 84.9904 25.6305 84.9534 25.3997 84.867ZM58.8841 84.5782C57.8878 84.2043 56.694 83.2125 56.2568 82.3954C56.1207 82.1411 55.0445 79.6702 53.8653 76.9044C52.1215 72.8146 51.7029 71.7467 51.6234 71.1842C51.3651 69.3562 52.1783 67.495 53.4142 67.0857C54.0278 66.8825 55.0617 67.0028 55.7612 67.3587C56.5133 67.7415 57.4253 68.582 57.7532 69.1948C57.8916 69.4534 58.9758 71.9421 60.1625 74.7253C62.5537 80.3334 62.614 80.5246 62.4091 81.8476C62.1309 83.6431 61.2814 84.5951 59.8865 84.6745C59.488 84.6971 59.1023 84.6601 58.8841 84.5782ZM40.9973 66.9303C37.271 66.5589 34.8081 65.8677 31.7914 64.3465C29.3884 63.1347 27.4089 61.6845 25.3683 59.6409C23.4216 57.6913 22.1848 56.0616 20.9734 53.8503C18.9873 50.2248 18.0499 46.5856 18.0499 42.5C18.0499 39.4895 18.5205 36.9034 19.5596 34.2027C22.1429 27.4889 27.6163 22.0372 34.293 19.5278C37.513 18.3176 41.1525 17.806 44.3663 18.1118C50.3767 18.6837 55.6511 21.2725 59.9665 25.7687C63.2768 29.2178 65.4628 33.3172 66.4222 37.8752C66.8609 39.9597 66.9863 43.1123 66.7166 45.2787C66.175 49.6295 64.4893 53.6327 61.6341 57.3483C61.2843 57.8034 60.3621 58.8141 59.5848 59.5941C58.8075 60.3741 57.8003 61.2995 57.3467 61.6505C53.7217 64.4554 49.8292 66.1385 45.5577 66.7479C44.5795 66.8874 41.7164 67.0019 40.9973 66.9303ZM2.76785 62.2744C1.77863 62.0291 1.07298 61.5321 0.719262 60.8317C0.501513 60.4005 0.473019 60.238 0.502598 59.5963C0.549973 58.5685 0.885087 57.9061 1.83833 56.956L2.57379 56.223L7.88778 53.9564C11.5979 52.3738 13.3843 51.6599 13.8066 51.5909C14.9935 51.397 16.4901 51.7537 17.2295 52.4068C17.9071 53.0053 18.0762 53.4191 18.0316 54.3688C17.9824 55.4157 17.6553 56.0857 16.74 57.0149L16.0608 57.7045L10.8698 59.9282C8.0147 61.1513 5.46181 62.2103 5.19669 62.2816C4.60704 62.4402 3.42235 62.4367 2.76785 62.2744V62.2744ZM80.4882 61.658C80.141 61.6072 69.7517 57.4104 69.3247 57.1484C68.7933 56.8224 67.8299 55.7253 67.5598 55.1386C67.2253 54.4118 67.1507 53.4341 67.3831 52.8233C67.5776 52.3124 68.2466 51.6662 68.85 51.4067C69.4845 51.1338 70.4755 50.9861 71.2623 51.0473C71.8729 51.0948 72.5448 51.3419 77.2862 53.2633C80.2213 54.4528 82.8042 55.551 83.0258 55.7038C83.5917 56.0939 84.3398 56.9643 84.6672 57.6137C85.3544 58.9767 84.8962 60.6006 83.6434 61.242C82.931 61.6067 81.462 61.8003 80.4882 61.658ZM13.2036 33.9093C12.7188 33.818 2.36646 29.5658 1.98077 29.2995C1.44677 28.9309 0.758748 28.1514 0.378195 27.4839C-0.0441657 26.7432 -0.120636 25.7686 0.188567 25.0671C0.451259 24.4712 0.606845 24.2954 1.22606 23.8947C1.88293 23.4697 3.06646 23.2219 4.04341 23.3047C4.66829 23.3577 5.3446 23.6063 10.0645 25.5175C12.9889 26.7017 15.5196 27.7551 15.6882 27.8584C16.1896 28.1656 17.134 29.2488 17.4303 29.8564C17.781 30.5757 17.86 31.5447 17.6194 32.1767C17.426 32.6851 16.7567 33.3335 16.161 33.5898C15.3902 33.9213 14.0413 34.0671 13.2036 33.9093ZM69.6464 33.3932C68.4625 33.1931 67.5412 32.6225 67.1564 31.851C66.5829 30.7009 66.9922 29.2682 68.2606 27.9854L68.9417 27.2966L74.1327 25.0722C76.9878 23.8488 79.5421 22.7866 79.809 22.7118C80.501 22.5178 81.9759 22.5999 82.6854 22.8719C83.5153 23.1902 83.9708 23.5683 84.2743 24.1907C84.5095 24.6731 84.5348 24.8168 84.4943 25.4392C84.4283 26.4515 84.0822 27.1297 83.1645 28.0444L82.4287 28.7777L77.1106 31.0444C71.1991 33.564 71.0099 33.6236 69.6464 33.3932ZM29.7905 17.9214C28.8434 17.6305 27.5919 16.6267 27.1523 15.8053C27.0139 15.5467 25.9297 13.058 24.743 10.2748C22.3505 4.66358 22.293 4.48125 22.4953 3.13954C22.9588 0.0646172 25.5866 -0.636714 27.9045 1.69586L28.5898 2.38549L30.8947 7.78815C33.4038 13.6695 33.431 13.7539 33.2735 15.1717C33.1355 16.4141 32.5232 17.4362 31.6825 17.8277C31.2775 18.0162 30.2629 18.0665 29.7905 17.9214ZM52.4205 17.618C51.6082 17.2026 51.0449 16.2563 50.8298 14.9456C50.6319 13.739 50.702 13.5037 52.9467 7.83795C54.0924 4.9462 55.1329 2.40496 55.259 2.19076C55.5954 1.61937 56.4329 0.842153 57.1527 0.433337C58.5794 -0.376984 60.2204 0.0263151 60.8772 1.34866C61.3 2.19999 61.5017 3.51761 61.3419 4.38364C61.1805 5.25811 57.1133 15.4249 56.6975 15.9933C56.2882 16.5528 55.5769 17.1425 54.8782 17.5015C54.1746 17.8631 53.008 17.9184 52.4205 17.618Z" fill="#E9E843"/>
</svg>
