<svg width="274" height="120" viewBox="0 0 274 120" fill="none" xmlns="http://www.w3.org/2000/svg">
<path d="M46.5 27L53.7509 39.3871L65.4133 31.0201L66.999 45.2855L81.0562 42.3854L76.7026 56.0625L90.7241 59.1307L81.184 69.8546L92.7453 78.3606L79.6681 84.277L86.7702 96.75L72.4172 96.8359L73.832 111.119L60.6849 105.36L56.1679 118.984L46.5 108.375L36.8321 118.984L32.3151 105.36L19.168 111.119L20.5828 96.8359L6.22982 96.75L13.3319 84.277L0.25473 78.3606L11.816 69.8546L2.27587 59.1307L16.2974 56.0625L11.9438 42.3854L26.001 45.2855L27.5867 31.0201L39.2491 39.3871L46.5 27Z" fill="#7B61FF"/>
<path d="M29.8295 65.3083C29.926 65.7617 29.9537 66.1791 29.9124 66.5606C29.8763 66.9411 29.7933 67.2889 29.6634 67.6041C29.5324 67.9143 29.3601 68.1932 29.1466 68.4411C28.9382 68.6878 28.7126 68.9036 28.4697 69.0884C28.2258 69.2682 27.9697 69.4159 27.7014 69.5316C27.4383 69.6462 27.1845 69.7295 26.9399 69.7816L26.1376 69.9524L26.9039 73.5514L24.9019 73.9777L24.1356 70.3787L23.3409 70.5479C23.0964 70.6 22.8281 70.6278 22.536 70.6314C22.249 70.634 21.9549 70.6034 21.6538 70.5397C21.3567 70.4699 21.0627 70.3647 20.7719 70.2243C20.4811 70.0839 20.2101 69.8993 19.959 69.6705C19.712 69.4355 19.4919 69.1522 19.2988 68.8206C19.1097 68.4828 18.9675 68.0897 18.872 67.6414L18.091 63.9737L20.0778 63.5506L20.8587 67.2184C20.914 67.4782 21.0047 67.7039 21.1307 67.8954C21.2556 68.0818 21.4076 68.2331 21.5868 68.3494C21.766 68.4657 21.9687 68.5423 22.1949 68.5794C22.4251 68.6102 22.6701 68.598 22.9299 68.5427L26.5137 67.7796C26.6956 67.7089 26.8811 67.6295 27.07 67.5413C27.2578 67.4481 27.4207 67.3255 27.5588 67.1736C27.6969 67.0218 27.7972 66.83 27.8597 66.5984C27.9222 66.3667 27.9165 66.0777 27.8428 65.7313L27.0618 62.0635L29.0485 61.6405L29.8295 65.3083ZM43.726 65.3367C43.8681 66.004 43.8842 66.6423 43.7743 67.2514C43.6644 67.8606 43.4491 68.4123 43.1283 68.9066C42.8075 69.4009 42.3914 69.8224 41.8798 70.1709C41.3723 70.5133 40.79 70.7544 40.1328 70.8944L37.4431 71.4671C36.786 71.607 36.1534 71.6245 35.5453 71.5197C34.9361 71.4098 34.3844 71.1945 33.8901 70.8737C33.3958 70.553 32.9718 70.1373 32.6182 69.6269C32.2696 69.1153 32.0243 68.5259 31.8822 67.8586L31.4364 65.7649C31.2954 65.1026 31.2798 64.4669 31.3897 63.8578C31.5037 63.2424 31.7216 62.6902 32.0434 62.2009C32.3642 61.7066 32.7803 61.2852 33.2919 60.9367C33.8034 60.5881 34.3877 60.3439 35.0449 60.2039L37.7346 59.6312C38.3917 59.4913 39.0223 59.4768 39.6264 59.5878C40.2356 59.6978 40.7873 59.9131 41.2816 60.2339C41.7748 60.5495 42.1963 60.9657 42.5459 61.4823C42.8945 61.9939 43.1392 62.5807 43.2802 63.243L43.726 65.3367ZM41.2935 63.666C41.21 63.2738 41.0709 62.9333 40.8763 62.6446C40.6857 62.3497 40.452 62.1145 40.175 61.9392C39.9021 61.7577 39.5921 61.64 39.2451 61.5861C38.9022 61.526 38.5397 61.5366 38.1576 61.6179L35.4679 62.1907C35.0808 62.2731 34.7403 62.4122 34.4465 62.6078C34.1567 62.7974 33.9215 63.0311 33.7411 63.3092C33.5596 63.5821 33.4393 63.8926 33.3803 64.2407C33.3253 64.5825 33.3396 64.9496 33.4231 65.3419L33.8689 67.4355C33.9524 67.8278 34.0895 68.1714 34.2801 68.4663C34.4747 68.755 34.711 68.9896 34.9891 69.17C35.266 69.3453 35.576 69.463 35.9189 69.5231C36.2659 69.5771 36.6329 69.5628 37.0201 69.4804L39.6945 68.9109C40.0817 68.8285 40.4202 68.6925 40.71 68.503C41.0038 68.3073 41.2414 68.073 41.4229 67.8C41.6034 67.522 41.7211 67.212 41.7761 66.8701C41.8351 66.5221 41.8229 66.1519 41.7393 65.7597L41.2935 63.666ZM57.1563 66.0634C57.1866 66.2061 57.1894 66.3439 57.1645 66.4771C57.1395 66.6102 57.091 66.7323 57.0188 66.8435C56.9456 66.9497 56.8532 67.0412 56.7418 67.1182C56.6304 67.1952 56.5059 67.2483 56.3684 67.2776L51.8907 68.231C51.4678 68.3211 51.0302 68.3663 50.5777 68.3668C50.1251 68.3673 49.675 68.3167 49.2274 68.215C48.7837 68.1071 48.3521 67.9434 47.9326 67.7239C47.5131 67.5044 47.1255 67.2221 46.7699 66.8772C46.4182 66.526 46.1106 66.1069 45.8472 65.6199C45.5826 65.1277 45.382 64.5607 45.2453 63.9189L44.0788 58.4401L46.0655 58.0171L47.2321 63.4958C47.3514 64.0562 47.5287 64.5137 47.7639 64.8683C48.0043 65.2218 48.2718 65.503 48.5666 65.7118C48.8613 65.9206 49.167 66.0685 49.4838 66.1555C49.8005 66.2425 50.0938 66.2945 50.3637 66.3116C50.6387 66.3276 50.8751 66.3252 51.0731 66.3044C51.275 66.2773 51.4065 66.2573 51.4676 66.2443L54.9597 65.5008L53.0495 56.53L55.0362 56.107L57.1563 66.0634ZM69.0856 56.9655C69.1821 57.4189 69.2123 57.8358 69.1762 58.2162C69.14 58.5967 69.0545 58.9451 68.9195 59.2614C68.7885 59.5715 68.6188 59.8499 68.4104 60.0966C68.202 60.3434 67.9738 60.5597 67.7258 60.7456C67.4819 60.9254 67.2258 61.0731 66.9575 61.1888C66.6944 61.3034 66.4405 61.3867 66.196 61.4388L71.1083 64.139L68.0365 64.7931L63.1319 62.0912L61.703 62.3955L61.28 60.4088L65.773 59.4521C66.0183 59.3786 66.2341 59.2793 66.4205 59.1544C66.6109 59.0234 66.7648 58.8708 66.8822 58.6967C67.0046 58.5215 67.0855 58.3259 67.1247 58.1099C67.1628 57.8888 67.1542 57.6483 67.0989 57.3885L66.832 56.1354C66.8082 56.0233 66.775 55.9425 66.7325 55.893C66.694 55.8373 66.6491 55.8016 66.5979 55.7858C66.5506 55.764 66.501 55.7559 66.4489 55.7616C66.402 55.7663 66.3582 55.773 66.3174 55.7817L59.7613 57.1777L61.6714 66.1484L59.6847 66.5714L57.5647 56.615C57.5354 56.4774 57.5332 56.3421 57.5581 56.209C57.583 56.0759 57.629 55.9543 57.6961 55.8441C57.7682 55.7329 57.86 55.6388 57.9714 55.5618C58.0829 55.4849 58.2099 55.4312 58.3525 55.4008L65.8944 53.7949C66.3376 53.7006 66.7293 53.7024 67.0697 53.8003C67.409 53.8931 67.6989 54.0417 67.9394 54.2461C68.184 54.4443 68.3769 54.6748 68.518 54.9377C68.6643 55.1994 68.7634 55.4525 68.8155 55.6971L69.0856 56.9655ZM34.5099 84.776C34.6064 85.2294 34.6366 85.6463 34.6005 86.0268C34.5644 86.4072 34.4788 86.7556 34.3438 87.0719C34.2128 87.382 34.0431 87.6604 33.8347 87.9072C33.6263 88.1539 33.3981 88.3702 33.1502 88.5561C32.9062 88.7359 32.6501 88.8836 32.3819 88.9993C32.1187 89.1139 31.8649 89.1973 31.6204 89.2493L36.5326 91.9496L33.4608 92.6036L28.5562 89.9018L27.1273 90.206L26.7043 88.2193L31.1973 87.2626C31.4426 87.1891 31.6584 87.0899 31.8448 86.965C32.0353 86.8339 32.1892 86.6813 32.3065 86.5072C32.429 86.3321 32.5098 86.1365 32.549 85.9204C32.5871 85.6993 32.5785 85.4588 32.5232 85.199L32.2564 83.9459C32.2325 83.8338 32.1993 83.753 32.1568 83.7035C32.1183 83.6478 32.0735 83.6121 32.0222 83.5964C31.9749 83.5745 31.9253 83.5664 31.8733 83.5722C31.8263 83.5768 31.7825 83.5835 31.7417 83.5922L25.1856 84.9882L27.0957 93.9589L25.109 94.382L22.989 84.4255C22.9597 84.2879 22.9575 84.1526 22.9824 84.0195C23.0073 83.8864 23.0533 83.7648 23.1204 83.6547C23.1926 83.5434 23.2844 83.4493 23.3958 83.3724C23.5072 83.2954 23.6342 83.2417 23.7768 83.2114L31.3187 81.6055C31.7619 81.5111 32.1537 81.5129 32.494 81.6108C32.8333 81.7037 33.1232 81.8523 33.3638 82.0566C33.6083 82.2549 33.8012 82.4854 33.9423 82.7482C34.0886 83.0099 34.1878 83.2631 34.2398 83.5076L34.5099 84.776ZM48.6095 84.7452C48.7516 85.4125 48.7677 86.0508 48.6578 86.6599C48.5479 87.2691 48.3325 87.8208 48.0118 88.3152C47.691 88.8095 47.2749 89.2309 46.7633 89.5794C46.2558 89.9218 45.6735 90.163 45.0163 90.3029L42.3266 90.8756C41.6695 91.0155 41.0369 91.0331 40.4288 90.9282C39.8196 90.8183 39.2679 90.603 38.7736 90.2822C38.2793 89.9615 37.8553 89.5459 37.5016 89.0354C37.1531 88.5239 36.9078 87.9344 36.7657 87.2671L36.3199 85.1734C36.1789 84.5112 36.1633 83.8755 36.2732 83.2663C36.3872 82.651 36.605 82.0987 36.9269 81.6095C37.2476 81.1152 37.6638 80.6937 38.1753 80.3452C38.6869 79.9966 39.2712 79.7524 39.9284 79.6125L42.6181 79.0398C43.2752 78.8998 43.9058 78.8854 44.5099 78.9964C45.119 79.1063 45.6708 79.3216 46.1651 79.6424C46.6583 79.9581 47.0797 80.3742 47.4294 80.8908C47.7779 81.4024 48.0227 81.9893 48.1637 82.6515L48.6095 84.7452ZM46.177 83.0745C46.0935 82.6823 45.9544 82.3418 45.7598 82.0531C45.5692 81.7582 45.3354 81.5231 45.0585 81.3477C44.7855 81.1662 44.4756 81.0485 44.1286 80.9946C43.7857 80.9345 43.4231 80.9451 43.0411 81.0265L40.3514 81.5992C39.9642 81.6816 39.6238 81.8207 39.3299 82.0164C39.0401 82.2059 38.805 82.4397 38.6246 82.7177C38.4431 82.9907 38.3228 83.3012 38.2638 83.6492C38.2088 83.9911 38.2231 84.3581 38.3066 84.7504L38.7524 86.8441C38.8359 87.2363 38.973 87.5799 39.1636 87.8748C39.3582 88.1635 39.5945 88.3981 39.8725 88.5785C40.1495 88.7538 40.4594 88.8716 40.8024 88.9317C41.1494 88.9856 41.5164 88.9713 41.9036 88.8889L44.578 88.3194C44.9652 88.237 45.3036 88.101 45.5934 87.9115C45.8872 87.7158 46.1249 87.4815 46.3064 87.2085C46.4868 86.9305 46.6046 86.6205 46.6596 86.2787C46.7186 85.9306 46.7063 85.5605 46.6228 85.1682L46.177 83.0745ZM61.5805 86.6161L52.518 88.5458C52.3754 88.5762 52.2375 88.5789 52.1044 88.554C51.9713 88.5291 51.8497 88.4831 51.7395 88.416C51.6334 88.3428 51.5418 88.2504 51.4649 88.139C51.3879 88.0276 51.3342 87.9006 51.3039 87.758L49.1838 77.8015L51.1705 77.3784L53.0807 86.3492L61.1574 84.6294L61.5805 86.6161ZM71.0496 79.9191L64.7762 81.2549L64.3499 79.2529L70.6233 77.9171L71.0496 79.9191ZM72.8971 84.2065L65.7296 85.7327C65.4545 85.7912 65.1437 85.8068 64.797 85.7795C64.4504 85.7521 64.1137 85.6587 63.7869 85.4993C63.4641 85.3338 63.171 85.0953 62.9077 84.7839C62.6483 84.4664 62.4639 84.0504 62.3544 83.5359L60.8282 76.3684C60.7989 76.2309 60.7967 76.0956 60.8216 75.9625C60.8465 75.8293 60.8925 75.7077 60.9596 75.5976C61.0318 75.4864 61.1236 75.3923 61.235 75.3153C61.3464 75.2383 61.4734 75.1847 61.6161 75.1543L70.5639 73.249L70.9869 75.2357L63.0248 76.9311L64.3411 83.1128C64.3964 83.3726 64.5075 83.5567 64.6743 83.6649C64.8411 83.7732 65.057 83.7991 65.3219 83.7427L72.474 82.2198L72.8971 84.2065Z" fill="white"/>
</svg>
